<svg xmlns="http://www.w3.org/2000/svg" width="14.47" height="11.2"><g data-name="Group 6176"><g data-name="Group 6173"><g data-name="Group 6159"><g data-name="Group 6178"><path d="M10.88 7.31c-.298-.377-.593-.701-.593-1.429V3.453c0-1.026.08-1.97-.673-2.67C8.994.214 8.024 0 7.27 0h-.324C5.574.08 4.12.673 3.796 2.374c-.053.215.109.297.216.324l1.508.19c.162-.029.242-.163.269-.299.136-.592.62-.889 1.159-.943h.108c.323 0 .672.136.862.403.213.325.188.757.188 1.134l-.001.214c-.35.027-.755.055-1.16.11-.619.08-1.238.188-1.75.43-.996.406-1.67 1.268-1.67 2.536 0 1.593 1.024 2.4 2.316 2.4.432 0 .782-.052 1.105-.133.512-.162.943-.46 1.455-.998.297.405.377.594.89 1.025.134.055.268.055.376-.027.323-.269.888-.755 1.185-1.024.134-.11.108-.27.027-.405Zm-3.072-.703a1.3 1.3 0 0 1-.862.702c-.053 0-.133.028-.215.028-.592 0-.943-.46-.943-1.134 0-.862.512-1.268 1.158-1.457.35-.08.755-.108 1.159-.108v.324c0 .621.025 1.106-.297 1.645Z" fill-rule="evenodd" data-name="Path 3051"/></g><g data-name="Group 5952"><path d="M14.47 8.37v.089c-.014.527-.292 1.54-.95 2.096-.132.102-.264.044-.206-.104.191-.468.63-1.554.425-1.802-.146-.19-.746-.176-1.258-.132-.234.03-.44.043-.6.075-.146.013-.177-.117-.03-.22a2.34 2.34 0 0 1 .63-.308c.833-.249 1.8-.103 1.932.06.029.04.057.129.057.247Z" fill="#f90" fill-rule="evenodd" data-name="Path 3052"/><g data-name="Group 6179"><path d="M13.08 9.396c-.19.146-.394.279-.6.398-1.536.923-3.526 1.406-5.252 1.406-2.78 0-5.268-1.027-7.155-2.741-.162-.133-.03-.323.16-.22 2.034 1.187 4.55 1.906 7.155 1.906 1.64 0 3.408-.308 5.092-.969.116-.042.248-.103.366-.145.263-.12.498.176.234.365Z" fill="#f90" fill-rule="evenodd" data-name="Path 3053"/></g></g></g></g></g></svg>