<svg id="Layer_1" data-name="Layer 1" xmlns="http://www.w3.org/2000/svg" viewBox="0 0 72 22"><defs><style>.cls-1{fill:#f7981d;}.cls-2{fill:#211e1f;}</style></defs><title>amazon-logo</title><path id="path8" class="cls-1" d="M44.67,17.12A27.43,27.43,0,0,1,29.2,21.85a28,28,0,0,1-18.9-7.21c-.39-.35,0-.84.43-.56a38,38,0,0,0,18.91,5,37.6,37.6,0,0,0,14.42-2.95c.71-.3,1.3.46.61,1"/><path id="path10" class="cls-1" d="M46.41,15.13c-.53-.68-3.54-.32-4.88-.16-.41.05-.47-.31-.1-.56,2.39-1.68,6.32-1.2,6.77-.63s-.12,4.5-2.37,6.38c-.34.29-.67.13-.52-.25.5-1.26,1.64-4.08,1.1-4.77"/><path id="path12" class="cls-2" d="M41.62,2.52V.88A.4.4,0,0,1,42,.47h7.32a.41.41,0,0,1,.42.41v1.4a2.3,2.3,0,0,1-.55,1l-3.8,5.42a8.09,8.09,0,0,1,4.18.9.75.75,0,0,1,.39.64V12c0,.24-.26.52-.54.37a8.44,8.44,0,0,0-7.74,0c-.25.14-.52-.14-.52-.38V10.36a2,2,0,0,1,.27-1.13l4.4-6.31H42a.41.41,0,0,1-.42-.41"/><path id="path14" class="cls-2" d="M14.9,12.73H12.67a.42.42,0,0,1-.4-.38V.91A.42.42,0,0,1,12.7.5h2.08a.42.42,0,0,1,.4.38V2.38h0a3.06,3.06,0,0,1,5.83,0,3.29,3.29,0,0,1,5.66-.87c.71,1,.56,2.36.56,3.59v7.22a.42.42,0,0,1-.43.41H24.61a.42.42,0,0,1-.4-.41V6.25a14.32,14.32,0,0,0-.06-2.14,1.16,1.16,0,0,0-1.31-1,1.48,1.48,0,0,0-1.33.94,6.92,6.92,0,0,0-.21,2.19v6.06a.42.42,0,0,1-.43.41H18.64a.42.42,0,0,1-.4-.41V6.25c0-1.28.21-3.15-1.37-3.15s-1.54,1.83-1.54,3.15v6.06a.42.42,0,0,1-.43.41"/><path id="path16" class="cls-2" d="M56.08.26c3.31,0,5.1,2.84,5.1,6.45S59.2,13,56.08,13s-5-2.84-5-6.38,1.79-6.33,5-6.33m0,2.33c-1.64,0-1.75,2.24-1.75,3.63s0,4.38,1.73,4.38,1.81-2.41,1.81-3.87a10.57,10.57,0,0,0-.33-3A1.39,1.39,0,0,0,56.1,2.6"/><path id="path18" class="cls-2" d="M65.47,12.73H63.25a.42.42,0,0,1-.4-.41V.88A.42.42,0,0,1,63.27.5h2.07a.43.43,0,0,1,.4.32V2.57h0C66.4,1,67.28.26,68.82.26a2.92,2.92,0,0,1,2.6,1.35A7.27,7.27,0,0,1,72,5.17v7.2a.43.43,0,0,1-.43.36H69.34a.42.42,0,0,1-.39-.36V6.16c0-1.25.14-3.08-1.39-3.08A1.46,1.46,0,0,0,66.26,4a5.06,5.06,0,0,0-.35,2.17v6.16a.43.43,0,0,1-.44.41"/><g id="use28"><path id="path30" class="cls-2" d="M35.78,7.27V6.78c-1.61,0-3.31.34-3.31,2.24,0,1,.5,1.61,1.35,1.61a1.81,1.81,0,0,0,1.54-1,4.36,4.36,0,0,0,.42-2.36M38,12.7a.47.47,0,0,1-.53.05,5.49,5.49,0,0,1-1.28-1.49,4.41,4.41,0,0,1-3.67,1.62,3.16,3.16,0,0,1-3.33-3.47,3.79,3.79,0,0,1,2.38-3.64A15.44,15.44,0,0,1,35.78,5V4.71a2.87,2.87,0,0,0-.27-1.61,1.49,1.49,0,0,0-1.25-.58,1.7,1.7,0,0,0-1.79,1.34.47.47,0,0,1-.39.41L29.92,4a.39.39,0,0,1-.33-.47c.5-2.62,2.86-3.41,5-3.41a5.05,5.05,0,0,1,3.36,1.11c1.08,1,1,2.36,1,3.83V8.57a3,3,0,0,0,.84,2.07.42.42,0,0,1,0,.59c-.45.38-1.26,1.08-1.71,1.48h0"/></g><path id="path30-2" data-name="path30" class="cls-2" d="M6.57,7.27V6.78C5,6.78,3.25,7.13,3.25,9c0,1,.5,1.61,1.35,1.61a1.81,1.81,0,0,0,1.54-1,4.36,4.36,0,0,0,.42-2.36M8.81,12.7a.47.47,0,0,1-.53.05A5.49,5.49,0,0,1,7,11.26a4.41,4.41,0,0,1-3.67,1.62A3.16,3.16,0,0,1,0,9.41,3.79,3.79,0,0,1,2.38,5.77,15.44,15.44,0,0,1,6.57,5V4.71A2.87,2.87,0,0,0,6.3,3.09,1.49,1.49,0,0,0,5,2.51,1.7,1.7,0,0,0,3.25,3.85a.47.47,0,0,1-.39.41L.71,4a.39.39,0,0,1-.33-.47C.87.94,3.24.15,5.36.15A5.05,5.05,0,0,1,8.71,1.26c1.08,1,1,2.36,1,3.83V8.57a3,3,0,0,0,.84,2.07.42.42,0,0,1,0,.59c-.45.38-1.26,1.08-1.71,1.48h0"/></svg>