<svg id="Layer_1" data-name="Layer 1" xmlns="http://www.w3.org/2000/svg" viewBox="0 0 100 18.96"><defs><style>.cls-1{fill:#f7981d;}.cls-2{fill:#211e1f;}</style></defs><title>amazon-logo</title><path class="cls-1" d="M39,30.35a24,24,0,0,1-13.51,4.13A24.46,24.46,0,0,1,9,28.18c-.34-.31,0-.73.38-.49a33.23,33.23,0,0,0,16.52,4.38,32.85,32.85,0,0,0,12.6-2.58c.62-.26,1.14.41.53.85" transform="translate(0 -15.52)"/><path class="cls-1" d="M40.54,28.61c-.47-.6-3.09-.28-4.27-.14-.36,0-.41-.27-.09-.49,2.09-1.47,5.52-1,5.92-.55S42,31.35,40,33c-.3.25-.59.12-.45-.22.44-1.1,1.43-3.57,1-4.17" transform="translate(0 -15.52)"/><path class="cls-2" d="M36.36,17.59V16.16a.35.35,0,0,1,.36-.36h6.4a.36.36,0,0,1,.37.36v1.22a2,2,0,0,1-.48.9L39.69,23a7.06,7.06,0,0,1,3.65.78.65.65,0,0,1,.34.56v1.53c0,.21-.23.45-.47.33a7.37,7.37,0,0,0-6.76,0c-.22.12-.45-.12-.45-.33V24.44a1.73,1.73,0,0,1,.24-1L40.07,18H36.73a.35.35,0,0,1-.37-.36M13,26.51H11.07a.37.37,0,0,1-.35-.33v-10a.37.37,0,0,1,.38-.36h1.82a.37.37,0,0,1,.35.33v1.31h0a2.68,2.68,0,0,1,5.09,0,2.87,2.87,0,0,1,4.94-.76c.62.84.49,2.06.49,3.13v6.31a.37.37,0,0,1-.38.36H21.5a.37.37,0,0,1-.35-.36v-5.3A12.52,12.52,0,0,0,21.1,19,1,1,0,0,0,20,18.12a1.29,1.29,0,0,0-1.16.82,6.05,6.05,0,0,0-.18,1.91v5.3a.37.37,0,0,1-.38.36H16.29a.37.37,0,0,1-.35-.36v-5.3c0-1.11.18-2.75-1.2-2.75s-1.34,1.6-1.34,2.75v5.3a.37.37,0,0,1-.38.36M49,15.62c2.89,0,4.45,2.48,4.45,5.63S51.72,26.72,49,26.72s-4.38-2.48-4.38-5.57,1.56-5.53,4.38-5.53m0,2c-1.43,0-1.53,2-1.53,3.17s0,3.83,1.51,3.83,1.58-2.1,1.58-3.38a9.24,9.24,0,0,0-.29-2.65,1.22,1.22,0,0,0-1.27-1m8.18,8.85H55.26a.37.37,0,0,1-.35-.36v-10a.37.37,0,0,1,.38-.33h1.8a.37.37,0,0,1,.35.28v1.53h0a2.65,2.65,0,0,1,2.65-2,2.55,2.55,0,0,1,2.27,1.18,6.35,6.35,0,0,1,.51,3.11v6.29a.37.37,0,0,1-.38.31h-2a.37.37,0,0,1-.34-.31V20.77c0-1.09.13-2.69-1.22-2.69a1.27,1.27,0,0,0-1.13.8,4.42,4.42,0,0,0-.31,1.89v5.38a.37.37,0,0,1-.38.36m6.92-.79a1,1,0,1,1,1,.91.93.93,0,0,1-1-.91m20.63.8a.37.37,0,0,1-.36-.36v-10a.36.36,0,0,1,.35-.33h.71a.37.37,0,0,1,.37.33v1.46a3.06,3.06,0,0,1,2.65-2.06h.15a2.7,2.7,0,0,1,2.54,2.3A3.22,3.22,0,0,1,94,15.56h.15a2.69,2.69,0,0,1,2.32,1.53A6.9,6.9,0,0,1,97,20.14v6a.37.37,0,0,1-.35.36h-.85a.37.37,0,0,1-.36-.31V20.14A5.22,5.22,0,0,0,95.14,18a1.76,1.76,0,0,0-1.47-1.11A2.26,2.26,0,0,0,92,18.1a4.56,4.56,0,0,0-.51,2.65v5.46a.37.37,0,0,1-.35.31h-.85a.37.37,0,0,1-.36-.36V19.74a4.1,4.1,0,0,0-.31-1.81,1.82,1.82,0,0,0-1.47-1,2.28,2.28,0,0,0-1.6,1,4.24,4.24,0,0,0-.56,2.44v5.76a.37.37,0,0,1-.35.36h-.85m-5.86.21c-2.76,0-4-2.82-4-5.63s1.45-5.53,4.24-5.53h.15c2.71,0,4.05,2.73,4.05,5.55,0,3-1.49,5.61-4.29,5.61h-.15m.2-1.37a2.33,2.33,0,0,0,2.05-1.53,6.66,6.66,0,0,0,.45-2.74A6.09,6.09,0,0,0,81,18.16a2.1,2.1,0,0,0-3.94.25,6.92,6.92,0,0,0-.45,2.67A7.15,7.15,0,0,0,77.13,24a2.31,2.31,0,0,0,1.95,1.34m-8.84,0c1.24,0,1.89-1,2.16-2.32a.38.38,0,0,1,.36-.28h.82a.35.35,0,0,1,.36.34c-.38,2.19-1.7,3.68-3.58,3.68h-.15c-2.74,0-3.93-2.75-3.93-5.55s1.2-5.61,3.94-5.61h.15c1.91,0,3.26,1.47,3.56,3.66a.36.36,0,0,1-.33.33h-.86a.4.4,0,0,1-.33-.35c-.21-1.22-.91-2.2-2.08-2.24-1.86.06-2.4,2.35-2.4,4.12s.44,4.18,2.31,4.24m-35.52-.63a2.66,2.66,0,0,1-.73-1.8v-3c0-1.28.09-2.46-.86-3.35a4.41,4.41,0,0,0-2.93-1c-1.85,0-3.92.69-4.35,3a.34.34,0,0,0,.29.41l1.89.2a.41.41,0,0,0,.34-.36,1.48,1.48,0,0,1,1.56-1.17,1.3,1.3,0,0,1,1.09.51,2.48,2.48,0,0,1,.24,1.41v.25a13.49,13.49,0,0,0-3.66.68,3.3,3.3,0,0,0-2.08,3.18,2.76,2.76,0,0,0,2.91,3,3.85,3.85,0,0,0,3.21-1.42,4.75,4.75,0,0,0,1.12,1.3.41.41,0,0,0,.46,0h0c.39-.35,1.1-1,1.49-1.29A.37.37,0,0,0,34.72,24.68Zm-3.83-.88a1.58,1.58,0,0,1-1.35.88c-.75,0-1.19-.57-1.19-1.41,0-1.66,1.49-2,2.9-2v.42A3.81,3.81,0,0,1,30.89,23.8ZM9.2,24.68a2.66,2.66,0,0,1-.73-1.8v-3c0-1.28.09-2.46-.86-3.35a4.41,4.41,0,0,0-2.93-1c-1.85,0-3.92.69-4.35,3a.34.34,0,0,0,.29.41l1.89.2a.41.41,0,0,0,.34-.36,1.48,1.48,0,0,1,1.57-1.17,1.3,1.3,0,0,1,1.09.51,2.51,2.51,0,0,1,.24,1.41v.25a13.49,13.49,0,0,0-3.66.68A3.31,3.31,0,0,0,0,23.61a2.76,2.76,0,0,0,2.91,3,3.85,3.85,0,0,0,3.21-1.42,4.79,4.79,0,0,0,1.12,1.3.41.41,0,0,0,.46,0h0c.39-.35,1.1-1,1.49-1.29A.37.37,0,0,0,9.2,24.68ZM5.37,23.8A1.58,1.58,0,0,1,4,24.69c-.75,0-1.18-.57-1.18-1.41,0-1.66,1.49-2,2.89-2v.42A3.81,3.81,0,0,1,5.37,23.8ZM99,15.94a.86.86,0,1,1-.85.85.86.86,0,0,1,.85-.85m0-.16a1,1,0,1,0,1,1,1,1,0,0,0-1-1m-.38,1.59h.22v-.46H99c.08,0,.1,0,.12.1s0,.31,0,.36h.24a1.23,1.23,0,0,1-.06-.3c0-.15,0-.25-.19-.26a.27.27,0,0,0,.22-.28c0-.3-.27-.3-.4-.3H98.6v1.14m.21-1H99c.06,0,.17,0,.17.16a.15.15,0,0,1-.18.16h-.18v-.32" transform="translate(0 -15.52)"/></svg>