<svg id="Layer_1" data-name="Layer 1" xmlns="http://www.w3.org/2000/svg" viewBox="0 0 15 15"><defs><style>.cls-1{fill:#010101;}.cls-2{fill:#f8991d;}</style></defs><title>amazon-icon</title><path class="cls-1" d="M11.28,9.27a2.08,2.08,0,0,1-.61-1.48V5.27c0-1.06.08-2-.7-2.77a3.74,3.74,0,0,0-2.43-.81H7.2A3.17,3.17,0,0,0,3.94,4.16a.26.26,0,0,0,.22.34l1.56.2A.36.36,0,0,0,6,4.38a1.28,1.28,0,0,1,1.2-1h.11a1.11,1.11,0,0,1,.89.42A2.13,2.13,0,0,1,8.4,5v.22c-.36,0-.78.06-1.2.11a6.17,6.17,0,0,0-1.81.45A2.69,2.69,0,0,0,3.65,8.4a2.28,2.28,0,0,0,2.4,2.49,4.58,4.58,0,0,0,1.15-.14,3.5,3.5,0,0,0,1.51-1,4.35,4.35,0,0,0,.92,1.06.38.38,0,0,0,.39,0c.33-.28.92-.78,1.23-1.06a.31.31,0,0,0,0-.42ZM8.09,8.54a1.35,1.35,0,0,1-.89.73c-.05,0-.14,0-.22,0-.61,0-1-.48-1-1.18A1.47,1.47,0,0,1,7.2,6.61,5.54,5.54,0,0,1,8.4,6.5v.34A3,3,0,0,1,8.09,8.54Z"/><path class="cls-2" d="M15,10.37v.09a3.27,3.27,0,0,1-1,2.17c-.14.11-.27,0-.21-.11.2-.49.65-1.61.44-1.87s-.77-.18-1.3-.14c-.24,0-.46,0-.62.08s-.18-.12,0-.23a2.43,2.43,0,0,1,.65-.32,2.86,2.86,0,0,1,2,.06.47.47,0,0,1,.06.26Z"/><path class="cls-2" d="M13.56,11.44a5.72,5.72,0,0,1-.62.41,11,11,0,0,1-5.44,1.46A10.93,10.93,0,0,1,.08,10.46c-.17-.14,0-.33.17-.23a14.88,14.88,0,0,0,7.42,2,14.6,14.6,0,0,0,5.28-1l.38-.15C13.59,10.93,13.83,11.24,13.56,11.44Z"/></svg>