<svg xmlns="http://www.w3.org/2000/svg" width="17.608" height="18.896" viewBox="380 1118.104 17.608 18.896"><g data-name="Group 24043"><path d="M382.551 1130.138h4.143c.915 0 1.66-.745 1.66-1.66v-.817h1.02v.817c0 .915.745 1.66 1.66 1.66h4.144c.915 0 1.66-.745 1.66-1.66v-2.245c0-.915-.745-1.66-1.66-1.66h-4.143c-.916 0-1.66.745-1.66 1.66v.817h-1.02v-.817c0-.915-.746-1.66-1.661-1.66h-4.143c-.915 0-1.66.745-1.66 1.66v2.245c0 .915.745 1.66 1.66 1.66Zm8.484-4.97h4.143c.587 0 1.065.478 1.065 1.065v2.245c0 .586-.478 1.064-1.065 1.064h-4.143a1.066 1.066 0 0 1-1.065-1.064v-1.056a.299.299 0 0 0 0-.134v-1.055c0-.587.478-1.064 1.065-1.064Zm-9.549 1.065c0-.587.478-1.064 1.065-1.064h4.143c.587 0 1.065.477 1.065 1.064v1.055a.299.299 0 0 0 0 .134v1.056c0 .586-.478 1.064-1.065 1.064h-4.143a1.066 1.066 0 0 1-1.065-1.064v-2.245Z" fill="#7b41bc" fill-rule="evenodd" data-name="Path 1006"/><path d="M382.64 1129.185h3.965c.436 0 .79-.355.79-.791v-2.044a.792.792 0 0 0-.79-.79h-3.965a.791.791 0 0 0-.79.79v2.044c0 .436.354.79.79.79Zm-.302-2.835c0-.167.135-.302.302-.302h3.965c.167 0 .302.135.302.302v2.044a.302.302 0 0 1-.302.302h-3.965a.302.302 0 0 1-.302-.302v-2.044Z" fill="#7b41bc" fill-rule="evenodd" data-name="Path 1007"/><path d="M391.124 1129.185h3.965c.436 0 .79-.355.79-.791v-2.044a.791.791 0 0 0-.79-.79h-3.965a.791.791 0 0 0-.79.79v2.044c0 .436.354.79.79.79Zm-.302-2.835c0-.167.135-.302.302-.302h3.965c.166 0 .302.135.302.302v2.044a.302.302 0 0 1-.302.302h-3.965a.302.302 0 0 1-.302-.302v-2.044Z" fill="#7b41bc" fill-rule="evenodd" data-name="Path 1008"/><path d="M397.379 1135.67c-.738-.342-.948-1.041-1.17-1.78-.175-.58-.356-1.178-.8-1.61a3.88 3.88 0 0 0 .335-1.537.396.396 0 0 0-.793 0c0 2.347-3.075 4.737-6.093 4.737-2.687 0-6.094-2.23-6.094-4.737a.396.396 0 0 0-.792 0c0 .49.104.967.288 1.424-.568.52-.719 1.177-.853 1.765-.17.749-.305 1.34-1.175 1.737a.396.396 0 0 0-.008.717c.698.336 1.711.614 2.745.614 1.015 0 2.05-.268 2.825-1.013a.394.394 0 0 0 .105-.392c.963.43 1.994.678 2.959.678a7.41 7.41 0 0 0 2.836-.588c-.004.11.035.22.12.302.775.745 1.81 1.013 2.824 1.013a6.627 6.627 0 0 0 2.745-.614.395.395 0 0 0-.004-.716Zm-12.134-.254c-1.042 1.001-2.768.898-3.98.526.62-.547.78-1.245.914-1.834.104-.456.199-.863.465-1.195.617.981 1.603 1.826 2.725 2.423a.394.394 0 0 0-.124.08Zm7.118 0c-.012-.011-.024-.02-.037-.029 1.118-.585 2.069-1.416 2.681-2.359.199.285.315.666.443 1.09.187.62.392 1.303.922 1.814-1.213.38-2.959.494-4.01-.516Z" fill="#7b41bc" fill-rule="evenodd" data-name="Path 1009"/><path d="M389.741 1131.13c-.578.438-1.374.386-1.7.048a.462.462 0 1 0-.666.642c.35.363.873.546 1.42.546.521 0 1.065-.166 1.505-.499a.463.463 0 0 0-.559-.737Z" fill="#7b41bc" fill-rule="evenodd" data-name="Path 1010"/><path d="M381.708 1124.048c.017.002.372.039.947.039 1.972 0 6.515-.435 8.763-4.194.377 1.541 1.503 3.973 4.874 4.574a.395.395 0 0 0 .466-.39c0-1.176-.544-2.622-1.418-3.775-1.025-1.35-2.334-2.098-3.69-2.108-5.465-.533-9.02 1.314-10.276 5.342a.396.396 0 0 0 .334.512Zm14.221-.47c-3.136-.808-3.757-3.5-3.88-4.56 2.011.305 3.622 2.706 3.88 4.56Zm-4.893-4.64c-2.05 4.211-7.122 4.404-8.738 4.352 1.502-3.92 5.44-4.577 8.738-4.352Z" fill="#7b41bc" fill-rule="evenodd" data-name="Path 1011"/></g></svg>