<svg id="Layer_1" data-name="Layer 1" xmlns="http://www.w3.org/2000/svg" viewBox="0 0 85.55 50"><defs><style>.cls-1{fill:#1c252c;}.cls-2{fill:#ffed31;}</style></defs><title>bestbuy-logo</title><path id="path2998" class="cls-1" d="M7.23.62V22.2h11.3c4.45,0,8.56-1.56,8.56-6.15,0-3.1-2.23-4.52-4.69-5.26A4.64,4.64,0,0,0,25.59,6.3c0-3.38-3.36-5.68-7.88-5.68H7.23Zm6.92,5H16.7a1.77,1.77,0,0,1,1.83,1.64A1.8,1.8,0,0,1,16.7,8.87H14.15V5.65Zm0,7.7h3.36a2.08,2.08,0,0,1,2.16,1.91,2.12,2.12,0,0,1-2.36,2H14.15V13.35Z" transform="translate(-7.23)"/><path id="path3005" class="cls-1" d="M12.83,24.56V46.14h11.3c4.45,0,8.56-1.56,8.56-6.15,0-3.1-2.23-4.52-4.69-5.26a4.64,4.64,0,0,0,3.19-4.51c0-3.38-3.36-5.68-7.88-5.68H12.83Zm6.92,5H22.3a1.77,1.77,0,0,1,1.83,1.64,1.8,1.8,0,0,1-1.83,1.58H19.75V29.59Zm0,7.7h3.36a2.08,2.08,0,0,1,2.16,1.91,2.12,2.12,0,0,1-2.36,2H19.75V37.29Z" transform="translate(-7.23)"/><path id="path3007" class="cls-1" d="M27.63,22.2V.62H45V5.83H34.53V8.66h8.53v4.89H34.53V17H45V22.2Z" transform="translate(-7.23)"/><path id="path3009" class="cls-1" d="M54.47,22.82c4.9,0,8.82-2.8,8.82-7.33,0-7.31-9.51-6.19-9.51-8.46,0-.88.92-1.35,1.87-1.35a4.58,4.58,0,0,1,2.82,1.08l4.09-3.9A11,11,0,0,0,54.86,0c-5.23,0-8.65,3.1-8.65,6.85,0,7.4,9.37,6.33,9.37,8.65,0,.81-.78,1.63-2.2,1.63a6.24,6.24,0,0,1-3.89-1.8l-4.12,3.92A12.19,12.19,0,0,0,54.47,22.82Z" transform="translate(-7.23)"/><path id="path3011" class="cls-1" d="M68.62,22.2V5.81h-5.7V.62H81.25V5.81h-5.7V22.2Z" transform="translate(-7.23)"/><path id="path3013" class="cls-1" d="M32.93,24.54h6.9V37.47A2.73,2.73,0,0,0,42.5,40a2.64,2.64,0,0,0,2.58-2.59V24.54H52V37.32c0,5.07-4.21,9.11-9.65,9.11A9.33,9.33,0,0,1,32.93,37Z" transform="translate(-7.23)"/><path id="path3015" class="cls-1" d="M60.48,46.13V38.42L52.36,24.54h7L63.94,32l4.61-7.43h7l-8.15,14v7.63Z" transform="translate(-7.23)"/><path id="path3017" class="cls-2" d="M75.55,36.36l-4.07,4.07v5.5L75.55,50H92.77V36.36Z" transform="translate(-7.23)"/><path id="path3024" class="cls-1" d="M74.88,43.18a.92.92,0,1,1-.92-.92A.92.92,0,0,1,74.88,43.18Z" transform="translate(-7.23)"/></svg>