<svg id="Layer_1" data-name="Layer 1" xmlns="http://www.w3.org/2000/svg" viewBox="0 0 15 15"><defs><style>.cls-1{fill:#1c252d;}.cls-2{fill:#feeb30;}</style></defs><title>bestbuy-icon</title><path id="path2998" class="cls-1" d="M0,3.22V7H2c.78,0,1.5-.27,1.5-1.08,0-.54-.39-.79-.82-.92a.81.81,0,0,0,.56-.79c0-.59-.59-1-1.38-1H0Zm1.21.88h.45A.31.31,0,0,1,2,4.39a.32.32,0,0,1-.32.28H1.21V4.11Zm0,1.35H1.8a.36.36,0,0,1,.38.33.37.37,0,0,1-.41.35H1.21V5.46Z"/><path id="path3005" class="cls-1" d="M1,7.42v3.78H3c.78,0,1.5-.27,1.5-1.08,0-.54-.39-.79-.82-.92a.81.81,0,0,0,.56-.79c0-.59-.59-1-1.38-1H1ZM2.2,8.3h.45A.31.31,0,0,1,3,8.59a.32.32,0,0,1-.32.28H2.2V8.3Zm0,1.35h.59a.36.36,0,0,1,.38.33.37.37,0,0,1-.41.35H2.2V9.65Z"/><path id="path3007" class="cls-1" d="M3.58,7V3.22H6.63v.91H4.79v.5h1.5v.86H4.79V6.1H6.63V7Z"/><path id="path3009" class="cls-1" d="M8.28,7.12A1.38,1.38,0,0,0,9.83,5.83c0-1.28-1.67-1.08-1.67-1.48,0-.15.16-.24.33-.24A.8.8,0,0,1,9,4.3l.72-.68a1.93,1.93,0,0,0-1.35-.5c-.92,0-1.52.54-1.52,1.2,0,1.3,1.64,1.11,1.64,1.52,0,.14-.14.29-.39.29a1.09,1.09,0,0,1-.68-.32l-.72.69A2.14,2.14,0,0,0,8.28,7.12Z"/><path id="path3011" class="cls-1" d="M10.77,7V4.14h-1V3.22H13v.91H12V7Z"/><path id="path3013" class="cls-1" d="M4.51,7.42H5.72V9.69a.48.48,0,0,0,.47.44.46.46,0,0,0,.45-.45V7.42H7.84V9.66a1.63,1.63,0,0,1-1.69,1.6A1.64,1.64,0,0,1,4.51,9.61Z"/><path id="path3015" class="cls-1" d="M9.34,11.2V9.85L7.91,7.42H9.14l.8,1.3.81-1.3H12L10.55,9.87V11.2Z"/><path id="path3017" class="cls-2" d="M12,9.49l-.71.71v1l.71.71h3V9.49Z"/><path id="path3024" class="cls-1" d="M11.86,10.69a.16.16,0,1,1-.16-.16A.16.16,0,0,1,11.86,10.69Z"/></svg>