<?xml version="1.0" encoding="utf-8"?>
<!-- Generator: Adobe Illustrator 21.0.0, SVG Export Plug-In . SVG Version: 6.00 Build 0)  -->
<svg version="1.1" id="Layer_1" xmlns="http://www.w3.org/2000/svg" xmlns:xlink="http://www.w3.org/1999/xlink" x="0px" y="0px"
	 viewBox="0 0 12 12" style="enable-background:new 0 0 12 12;" xml:space="preserve">
<style type="text/css">
	.st0{display:none;fill:#6E6B66;}
	.st1{fill:#6E6B66;}
</style>
<path class="st0" d="M6,9.1c-0.9,0-1.6-0.3-2.2-0.9C3.2,7.6,2.9,6.9,2.9,6c0-0.9,0.3-1.6,0.9-2.2C4.4,3.2,5.1,2.9,6,2.9
	s1.6,0.3,2.2,0.9C8.8,4.4,9.1,5.1,9.1,6c0,0.9-0.3,1.6-0.9,2.2C7.6,8.8,6.9,9.1,6,9.1z M6,8.1c0.6,0,1.1-0.2,1.5-0.6
	C7.9,7.1,8.1,6.6,8.1,6c0-0.6-0.2-1.1-0.6-1.5C7.1,4.1,6.6,3.9,6,3.9S4.9,4.1,4.5,4.5C4.1,4.9,3.9,5.4,3.9,6c0,0.6,0.2,1.1,0.6,1.5
	C4.9,7.9,5.4,8.1,6,8.1z M1,12c-0.3,0-0.5-0.1-0.7-0.3C0.1,11.5,0,11.3,0,11V8.1h1V11h2.9v1H1z M8.1,12v-1H11V8.1h1V11
	c0,0.3-0.1,0.5-0.3,0.7C11.5,11.9,11.3,12,11,12H8.1z M0,3.9V1c0-0.3,0.1-0.5,0.3-0.7C0.5,0.1,0.7,0,1,0h2.9v1H1v2.9L0,3.9L0,3.9z
	 M11,3.9V1H8.1V0H11c0.3,0,0.5,0.1,0.7,0.3C11.9,0.5,12,0.7,12,1v2.9L11,3.9L11,3.9z"/>
<path class="st1" d="M6,5.2c-0.6,0-1.3-0.1-1.9-0.4C3.5,4.6,3,4.3,2.5,3.8l0.9-0.6C3.7,3.5,4,3.7,4.4,3.8C4.7,4,5.1,4.1,5.5,4.1V0.5
	L6,0.2l0.5,0.3v3.6C6.9,4.1,7.3,4,7.6,3.8C8,3.7,8.3,3.5,8.5,3.3l0.9,0.5c-0.5,0.4-1,0.7-1.6,1C7.3,5.1,6.6,5.2,6,5.2L6,5.2z
	 M4.9,11.8L4,11.3c0-0.2,0-0.3,0-0.5c0-0.3,0-0.5-0.1-0.8C3.8,9.7,3.8,9.4,3.6,9.1L0.5,11L0,10.7v-0.6l3.1-1.9
	C2.9,7.9,2.6,7.7,2.3,7.4C2,7.2,1.7,7,1.3,6.9V5.8c1.1,0.3,2,1,2.6,1.8c0.7,0.9,1,1.9,1,3.1c0,0.2,0,0.3,0,0.5
	C5,11.5,4.9,11.6,4.9,11.8L4.9,11.8z M7.1,11.8c0-0.2-0.1-0.3-0.1-0.5c0-0.2,0-0.3,0-0.5c0-1.2,0.3-2.2,1-3.1
	c0.7-0.9,1.6-1.5,2.6-1.8v1.1C10.3,7,10,7.2,9.7,7.4C9.4,7.7,9.1,7.9,8.9,8.2l3.1,1.9v0.6L11.5,11L8.4,9.1C8.2,9.4,8.2,9.7,8.1,10
	C8,10.3,8,10.7,8,11c0,0.1,0,0.2,0,0.2L7.1,11.8L7.1,11.8z"/>
<path class="st0" d="M5.2,12c-1.4-0.2-2.7-0.9-3.7-2C1.1,9.5,0.8,8.9,0.5,8.2C0.2,7.5,0.1,6.8,0.1,6c0-0.9,0.2-1.8,0.6-2.5
	c0.4-0.8,1-1.5,1.7-2.1H0.6V0.4H4v3.5H3.1V1.9C2.5,2.4,2,3.1,1.6,3.8C1.2,4.4,1,5.2,1,6c0,1.3,0.4,2.5,1.2,3.4
	c0.8,0.9,1.8,1.5,3,1.7L5.2,12L5.2,12z M5.1,8.6L2.8,6.2l0.6-0.6l1.7,1.7l3.4-3.4l0.6,0.6L5.1,8.6z M8,11.6V8.1h0.9v1.9
	c0.6-0.5,1.2-1.1,1.5-1.8C10.8,7.5,11,6.8,11,6c0-1.3-0.4-2.5-1.2-3.4S8,1.1,6.8,0.9V0c1.5,0.2,2.7,0.8,3.7,1.9
	c1,1.1,1.5,2.5,1.5,4.1c0,0.9-0.2,1.8-0.6,2.5c-0.4,0.8-1,1.5-1.7,2.1h1.8v0.9L8,11.6L8,11.6z"/>
</svg>
