<svg id="Layer_1" data-name="Layer 1" xmlns="http://www.w3.org/2000/svg" viewBox="0 0 12 12"><defs><style>.cls-1{fill:#6e6b66;}</style></defs><title>focus-icon</title><path class="cls-1" d="M6,9.12A3.1,3.1,0,0,1,2.88,6a3,3,0,0,1,.91-2.21A3,3,0,0,1,6,2.88,3.1,3.1,0,0,1,9.12,6,3.1,3.1,0,0,1,6,9.12Zm0-1A2.08,2.08,0,0,0,8.12,6,2.08,2.08,0,0,0,6,3.88,2.08,2.08,0,0,0,3.88,6,2.08,2.08,0,0,0,6,8.12ZM1,12a1,1,0,0,1-.7-.3A1,1,0,0,1,0,11V8.13H1V11H3.87v1Zm7.13,0V11H11V8.13h1V11a1,1,0,0,1-1,1ZM0,3.87V1A1,1,0,0,1,.3.3,1,1,0,0,1,1,0H3.87V1H1V3.87H0Zm11,0V1H8.13V0H11a1,1,0,0,1,.7.3A1,1,0,0,1,12,1V3.87H11Z"/></svg>