<svg id="Layer_1" data-name="Layer 1" xmlns="http://www.w3.org/2000/svg" viewBox="0 0 12 12"><defs><style>.cls-1{fill:#6e6b66;}</style></defs><title>lasts-icon</title><path class="cls-1" d="M5.25,12a5.8,5.8,0,0,1-3.66-2A6,6,0,0,1,.51,8.22,6.21,6.21,0,0,1,.12,6,5.43,5.43,0,0,1,.75,3.47,7.39,7.39,0,0,1,2.43,1.33H.59V.42H4V3.87h-.9V1.93A5.91,5.91,0,0,0,1.6,3.76,4.65,4.65,0,0,0,1,6,5.05,5.05,0,0,0,2.23,9.4a4.79,4.79,0,0,0,3,1.68V12ZM5.14,8.56,2.8,6.23l.63-.63,1.7,1.7L8.56,3.87l.63.63Zm2.82,3V8.13h.9v1.94A6.11,6.11,0,0,0,10.4,8.23,4.6,4.6,0,0,0,11,6,5.05,5.05,0,0,0,9.77,2.6a4.79,4.79,0,0,0-3-1.68V0a5.63,5.63,0,0,1,3.66,1.94A6,6,0,0,1,11.88,6a5.43,5.43,0,0,1-.63,2.53,7.39,7.39,0,0,1-1.68,2.14h1.84v.9H8Z"/></svg>