<svg xmlns="http://www.w3.org/2000/svg" width="251" height="97" viewBox="159.743 431.435 251 97"><g data-name="Group 19588"><path d="M181.743 458.435c1.05-.136 2.95.134 4 0v9c-2.114.145-4.886.852-7 1v1c-3.178.183-5.822.813-9 1v3c-3.177.112-6.822.884-10 1v-14c2.114-.3 4.886-.702 7-1 1.064-.15 1.937-.85 3-1 4.242-.599 7.758-1.405 12-2v2Zm-6 3c-2.114.247-3.886.751-6 1v5c1.064-.088 1.936-.913 3-1v-1c1.05-.099 1.95-.903 3-1v-3Z" fill-rule="evenodd" data-name="Path 5844"/><path d="M209.744 455.435c1.05-.134 1.95-.867 3-1v16c-1.05.044-1.95-.045-3 0v2c-6.357.195-12.645.791-19 1v-2c-1.064.047-1.937-.048-3 0v-13c1.063-.136 1.936-.864 3-1v-2c6.356-.89 12.643-1.117 19-2v2Zm-6 3c-2.115.243-4.886-.245-7 0v10c2.114-.119 4.885.117 7 0v-10Z" fill-rule="evenodd" data-name="Path 5845"/><path d="M246.743 448.435c3.178-.439 5.822-1.562 9-2v14c-1.064.08-1.936-.08-3 0v5c-1.064.054-1.936.945-3 1v5c-3.178.084-5.822-.087-9 0v-5c-1.05.054-2.95-.055-4 0v-5c-1.064.082-1.936-.082-3 0v5c-1.064.056-1.936.943-3 1v4c-3.178.09-6.822.906-10 1v-5c-1.05.056-1.95-.057-3 0v-4c-1.064.083-1.936-.083-3 0v-11c3.178-.441 6.822-.56 10-1v11c1.064-.083 1.936.082 3 0v-5c1.05-.107 1.95.107 3 0v-7c3.178-.44 6.822-1.562 10-2v8c1.065-.108 1.936.107 3 0v5c1.064-.081 1.936-.92 3-1v-12Z" fill-rule="evenodd" data-name="Path 5846"/><path d="M267.743 445.434c4.242-.584 8.758-1.416 13-2v6c-4.242.476-8.758.524-13 1v6c3.178-.277 6.822-.724 10-1v6c-3.178.196-6.821.803-10 1v3c4.243-.21 8.758-.794 13-1v6c-4.242.098-8.757-.103-13 0-1.064.026-1.936-.026-3 0-2.114.053-4.885.947-7 1v-25c2.115-.29 4.886-.708 7-1 1.064-.146 1.936.147 3 0Z" fill-rule="evenodd" data-name="Path 5847"/><path d="m304.743 443.434 3-1v11c-2.114.18-3.886-.18-6 0v3c1.064-.077 1.936.078 3 0v4c1.05-.062 1.95-.938 3-1v10c-3.178.064-5.822.933-9 1v-10c-2.114.128-4.885-.127-7 0v10c-3.178.07-5.822-.072-9 0v-27c2.114-.29 3.885-.709 6-1 1.063-.146 1.936-.853 3-1 4.242-.583 8.757-.415 13-1v3Zm-6 4c-2.115.237-4.886.764-7 1v6c1.064-.091 2.936.092 4 0v-4c1.05-.103 1.95.104 3 0v-3Z" fill-rule="evenodd" data-name="Path 5848"/><path d="M319.743 437.435c7.42-1.023 15.58-1.974 23-3v8c-2.128.236-4.872.763-7 1v26c-3.178.055-5.821-.059-9 0v-25c-2.114.235-4.886-.236-7 0v-7Z" fill-rule="evenodd" data-name="Path 5849"/><path d="M366.743 435.435c1.05-.132 1.95.131 3 0v29c-1.05.03-1.95-.03-3 0v4c-6.356.09-12.644.897-19 1v-4c-1.064.031-1.936-.032-3 0v-27c1.064-.133 1.936.132 3 0v-4c6.356-.881 12.643-2.115 19-3v4Zm-6 5c-2.114.235-4.886.764-7 1v20c2.114-.091 4.886-.91 7-1v-20Z" fill-rule="evenodd" data-name="Path 5850"/><path d="M159.743 479.434c7.42.036 14.58-.059 22 0v4c-2.128-.066-3.872.065-6 0v12c-3.178-.36-5.823-.646-9-1v-12c-2.113-.061-4.886.06-7 0v-3Z" fill-rule="evenodd" data-name="Path 5851"/><path d="M199.743 479.435c3.178.033 6.822.962 10 1v19c-3.178-.382-6.822-.625-10-1v-6c-2.114-.174-3.886-.829-6-1v6c-3.178-.371-6.822-.635-10-1v-17c3.178.026 6.822-.03 10 0v8c2.114.12 3.886.877 6 1v-9Z" fill-rule="evenodd" data-name="Path 5852"/><path d="M220.743 480.435c4.242.056 8.757-.065 13 0v5c-4.243-.168-8.758-.841-13-1v5c3.178.196 6.822-.203 10 0v5c-3.179-.28-6.822-.727-10-1v3c4.242.417 8.758.572 13 1v5c-4.243-.532-8.758-1.48-13-2-1.064-.13-1.937.129-3 0-2.115-.258-3.886-.745-6-1v-19c2.114.025 3.886-.028 6 0 1.064.014 1.936-.014 3 0Z" fill-rule="evenodd" data-name="Path 5853"/><path d="M268.744 483.435c1.05.034 1.949-.035 3 0v15c-2.114-.204-3.886-.8-6-1v3c-3.179-.342-6.822-.665-10-1v6c-3.179-.415-6.822-1.593-10-2v-23c2.114.035 4.885-.038 7 0 1.064.019 1.936-.02 3 0 4.242.077 8.758-.086 13 0v3Zm-7 3c-2.115-.094-3.886.09-6 0v8c1.064.085 1.936-.087 3 0v-3c1.05.072 1.95-.073 3 0v-5Z" fill-rule="evenodd" data-name="Path 5854"/><path d="M282.743 481.434c4.243.094 8.758-.101 13 0v6c-4.242-.21-8.757.202-13 0v6c3.179.233 6.822.762 10 1v6a5282 5282 0 0 0-10-1v3c4.243.474 8.758 1.515 13 2v6c-4.242-.594-8.757-1.418-13-2-1.064-.145-1.936.145-3 0-2.114-.287-3.885-.715-6-1v-26c2.115.045 3.886-.046 6 0 1.064.024 1.936-.023 3 0Z" fill-rule="evenodd" data-name="Path 5855"/><path d="M320.743 485.435c1.05.042 1.95-.044 3 0v25c-1.05-.141-1.95.14-3 0v4c-6.356-.932-13.642-2.1-20-3v-4c-1.064-.137-1.936.136-3 0v-23c1.064.04 1.936-.04 3 0v-3c6.357.157 13.644.824 20 1v3Zm-7 3c-2.114-.112-3.885.11-6 0v17c2.114.248 3.886.749 6 1v-18Z" fill-rule="evenodd" data-name="Path 5856"/><path d="M347.744 486.435c1.05.047 1.95.95 3 1v19c-2.115-.242-3.886.238-6 0v3c-3.178-.401-6.822-.607-10-1v8c-3.179-.479-5.822-1.53-9-2v-32c2.114.06 3.885-.062 6 0 1.064.031 1.936-.032 3 0 4.242.126 8.757-.135 13 0v4Zm-6 4c-2.115-.122-4.886.12-7 0v11c1.063.103 1.936-.105 3 0v-4c1.05.088 2.949.91 4 1v-8Z" fill-rule="evenodd" data-name="Path 5857"/><path d="M362.743 512.435c4.242.554 7.758.431 12 1v9c-4.242-.688-7.758-1.329-12-2-1.064-.169-1.936-.833-3-1-2.114-.333-4.886-.672-7-1v-35c3.178.103 6.822-.108 10 0v29Z" fill-rule="evenodd" data-name="Path 5858"/><path d="M386.743 484.435c4.242.16 8.759-.168 13 0v10c-4.241-.29-8.758-.72-13-1v9c3.178.3 6.823.692 10 1v9c-3.177-.399-6.822-.61-10-1v4c4.242.581 8.759 1.403 13 2v9c-4.24-.719-8.758-1.298-13-2-1.063-.177-1.936-.825-3-1-2.114-.348-4.885-.657-7-1v-39c2.115.076 4.886.921 7 1 1.064.039 1.936-.04 3 0Z" fill-rule="evenodd" data-name="Path 5859"/><path d="M401.743 484.435c3.178.126 5.823.867 9 1v29c-3.177-.411-5.822-1.598-9-2v-28Zm0 33c3.178.448 5.823.543 9 1v10c-3.177-.55-5.822-1.46-9-2v-9Z" fill-rule="evenodd" data-name="Path 5860"/></g></svg>