<svg id="af56f906-5208-4c1d-ad62-5a90a5e866c8" data-name="Слой 1" xmlns="http://www.w3.org/2000/svg" viewBox="0 0 153 36.47"><path d="M0,36.47V0H153V36.47Zm50.15-22.4h.15V33.56h4.33V27.68c0-7.42,0-14.82,0-22.23,0-.72-.15-1-.93-1-1.63.07-3.25,0-4.89,0-.52,0-.69.2-.76.66-.74,5-1.49,10-2.23,15-.2,1.4-.44,2.79-.64,4.18C44.05,18,43,11.61,42,5.26c-.1-.61-.34-.78-.93-.76-1.57,0-3.15,0-4.72,0-.76,0-1,.22-1,1q0,13.62,0,27.23c0,.31,0,.6,0,.88h4V14.25h.1L42.79,33.6h4.42Q48.68,23.78,50.15,14.07ZM148,4.51c-2,0-4,0-6,0-.17,0-.43.4-.46.66-.71,4.63-1.38,9.26-2.07,13.9-.26,1.74-.54,3.49-.81,5.24a14.64,14.64,0,0,1-.49-2.33c-.92-5.61-1.83-11.25-2.72-16.86-.09-.48-.27-.66-.78-.65-1.57,0-3.15.07-4.72,0-.85,0-1.08.2-1.08,1.07,0,9,0,18,0,27.06v.93H133V14.27a18,18,0,0,1,.44,2.16c.91,5.53,1.81,11.08,2.74,16.61,0,.22.28.54.45.56,1.33,0,2.68,0,4.05,0,1-6.58,2-13.08,2.95-19.56h.14v19.5H148C148,23.86,148,14.22,148,4.51ZM126.43,19.07c0-2.66,0-5.31,0-8,0-4.35-2.43-6.84-6.75-7-2.6-.07-4.93.63-6.16,3.14a9.34,9.34,0,0,0-.93,3.82c-.1,5.31-.07,10.64,0,16a6.91,6.91,0,0,0,1.82,5c2,2,4.5,2.12,7.07,1.68A5.49,5.49,0,0,0,126,29.56a10.53,10.53,0,0,0,.37-2.66C126.46,24.28,126.43,21.67,126.43,19.07Zm-38.69-4.7c0-1.3.05-2.53,0-3.73-.22-4.16-2.53-6.4-6.66-6.52C77.61,4,75.25,5.6,74.46,8.59a11.06,11.06,0,0,0-.37,2.76c0,4.53,0,9,0,13.58a31.65,31.65,0,0,0,.14,3.37,5.75,5.75,0,0,0,4.4,5.37,12.49,12.49,0,0,0,3.51.22A5.67,5.67,0,0,0,87.4,29.3a12.32,12.32,0,0,0,.32-2.51c0-2.8,0-5.6,0-8.4v-.95h-6.4v4.11l2,.1c0,2,.05,3.89,0,5.77A2.06,2.06,0,0,1,81,29.66c-1.36,0-2.1-.78-2.19-2.26,0-.33,0-.67,0-1V11.71a12.37,12.37,0,0,1,0-1.36,2.1,2.1,0,0,1,2.12-2,2,2,0,0,1,2.25,1.73,12.28,12.28,0,0,1,.13,2.1c0,.72,0,1.45,0,2.18Zm-15,19.18c0-.22,0-.39-.06-.56-.64-4.08-1.29-8.13-1.94-12.2C69.87,15.58,69,10.37,68.22,5.16c-.09-.49-.22-.68-.73-.66-1.82,0-3.66,0-5.48,0-.51,0-.7.17-.78.66-.27,1.86-.57,3.73-.88,5.6q-1.47,9.31-3,18.65c-.22,1.37-.42,2.75-.64,4.15H61c.27-1.74.53-3.44.8-5.15h5.43c.27,1.73.52,3.42.79,5.15ZM28.87,22.75c0,.26,0,.45,0,.65,0,1.32,0,2.66,0,4a2.09,2.09,0,0,1-2.26,2.29c-1.4,0-2.16-.77-2.24-2.29,0-.39,0-.8,0-1.19V12.45c0-.67,0-1.35,0-2A2,2,0,0,1,25.9,8.47a2.18,2.18,0,0,1,2.9,2.24c.05,1,0,2,.05,3,0,.21.24.58.39.58,1.32.05,2.62,0,4,0,0-1.37.07-2.61,0-3.85-.28-4.12-2.6-6.31-6.68-6.4-3.05,0-5.28,1.14-6.23,3.57A9.33,9.33,0,0,0,19.64,11c-.07,5.38-.07,10.74,0,16.12,0,3.8,1.86,6.12,5.23,6.75a10.88,10.88,0,0,0,2.85.07,5.5,5.5,0,0,0,5.22-4.63,57.6,57.6,0,0,0,.49-6.52C31.75,22.75,30.35,22.75,28.87,22.75Zm77.06-8.36c1.4,0,2.66,0,3.91,0,.17,0,.47-.38.47-.58a29,29,0,0,0,0-3.23c-.27-4.15-2.63-6.39-6.75-6.43-2.71,0-5,.82-6.15,3.53A9.07,9.07,0,0,0,96.7,11q-.11,8,0,16c0,3.83,1.87,6.19,5.28,6.79a9.42,9.42,0,0,0,2.6.06,5.67,5.67,0,0,0,5.11-3.56c1-2.46.56-5,.66-7.58h-4.4c0,1.34,0,2.61,0,3.88a6.1,6.1,0,0,1-.14,1.34,2,2,0,0,1-2.36,1.66,1.9,1.9,0,0,1-2-1.9c0-5.78,0-11.59,0-17.39a1.88,1.88,0,0,1,1.62-1.9,2.19,2.19,0,0,1,2.87,2.29C106,11.91,105.93,13.08,105.93,14.39Zm-97,8.35c1,0,1.82,0,2.67,0,3.52-.07,5.87-2.17,6.11-5.7a51.55,51.55,0,0,0,0-7,5.62,5.62,0,0,0-5.6-5.46c-2.28-.12-4.56,0-6.82-.15-.81,0-1,.25-1,1q0,13.61,0,27.23c0,.31,0,.59,0,.92H8.94ZM94.42,33.6V29.19H90.08V33.6Z" style="fill:#e5382f"/><path d="M50.14,14.07q-1.45,9.72-2.93,19.49H42.79L39.6,14.22h-.1V33.53h-4c0-.29,0-19-.07-28.12,0-.73.19-1,1-1,1.57,0,3.15,0,4.72,0,.59,0,.84.17.93.77,1,6.34,2,12.69,3.19,19.05.22-1.39.44-2.78.64-4.17.74-5,1.48-10,2.23-15,.06-.45.23-.67.76-.66,1.63,0,3.25,0,4.89,0,.77,0,.93.26.93,1q0,11.12,0,22.23v5.89H50.31V14.07ZM148,4.51v29h-4.29V14.05h-.13c-1,6.48-2,13-3,19.56-1.37,0-2.72,0-4,0-.17,0-.42-.34-.46-.56-.93-5.53-1.82-11.08-2.73-16.61a19.68,19.68,0,0,0-.44-2.16V33.56h-4.07v-.93c0-9,0-18,0-27.06,0-.87.23-1.12,1.08-1.07,1.56.06,3.15,0,4.72,0,.51,0,.69.17.78.65Q136.82,13.6,138.2,22a17.91,17.91,0,0,0,.49,2.33c.27-1.75.56-3.5.81-5.24.69-4.64,1.37-9.27,2.08-13.9,0-.24.28-.65.45-.66C144,4.5,146,4.51,148,4.51ZM126.43,19.07c0,2.6,0,5.21,0,7.81a11.23,11.23,0,0,1-.37,2.66,5.51,5.51,0,0,1-4.58,4.21c-2.56.46-5.06.36-7.07-1.68a6.83,6.83,0,0,1-1.82-5c0-5.31-.06-10.64,0-15.95a9.22,9.22,0,0,1,.93-3.82c1.23-2.51,3.56-3.2,6.15-3.14,4.32.11,6.74,2.6,6.75,7C126.44,13.76,126.43,16.41,126.43,19.07Zm-9.2-.05h0c0,2.84,0,5.65,0,8.49a2,2,0,0,0,2,2.17,2.06,2.06,0,0,0,2.45-1.89,4.68,4.68,0,0,0,.07-.84V11.17a4.53,4.53,0,0,0-.14-1.09,2,2,0,0,0-2.26-1.71,2.07,2.07,0,0,0-2.11,1.91,8.73,8.73,0,0,0-.07,1.36C117.23,14.12,117.23,16.56,117.23,19ZM87.74,14.37H83.33c0-.73,0-1.44,0-2.17a12.22,12.22,0,0,0-.13-2.1A2,2,0,0,0,81,8.37a2.08,2.08,0,0,0-2.12,2,12.18,12.18,0,0,0,0,1.36V26.4q0,.51,0,1c.1,1.48.84,2.24,2.19,2.26a2.07,2.07,0,0,0,2.3-2.24c.07-1.89,0-3.79,0-5.77l-2-.1V17.46h6.4v.95c0,2.8,0,5.6,0,8.4a11.82,11.82,0,0,1-.32,2.51,5.61,5.61,0,0,1-5.28,4.58,11.46,11.46,0,0,1-3.51-.22,5.71,5.71,0,0,1-4.4-5.36c-.11-1.12-.14-2.26-.14-3.38,0-4.53,0-9,0-13.57a10.87,10.87,0,0,1,.37-2.77c.79-3,3.15-4.56,6.6-4.46,4.13.1,6.44,2.34,6.66,6.52C87.79,11.86,87.74,13.07,87.74,14.37ZM72.64,33c-.65-4.07-1.29-8.12-1.94-12.2C69.87,15.59,69,10.38,68.22,5.18c-.09-.5-.22-.68-.73-.67-1.82,0-3.66,0-5.48,0-.51,0-.7.17-.78.67C61,7,60.66,8.91,60.35,10.77q-1.47,9.33-3,18.65c-.22,1.38-.42,2.75-.64,4.16H61c.27-1.75.53-3.44.8-5.16h5.43c.27,1.73.52,3.43.79,5.16h4.66A5.78,5.78,0,0,0,72.64,33ZM62.41,24.3c.69-4.65,1.37-9.25,2.06-13.83l.1,0c.68,4.57,1.35,9.15,2,13.78ZM28.87,22.75h4.5a57.25,57.25,0,0,1-.49,6.52,5.45,5.45,0,0,1-5.21,4.63,9.72,9.72,0,0,1-2.85-.06c-3.36-.62-5.18-2.94-5.23-6.76-.05-5.38-.05-10.74,0-16.12a9.8,9.8,0,0,1,.67-3.29c.95-2.41,3.17-3.61,6.23-3.56,4.1.08,6.39,2.25,6.68,6.39.08,1.24,0,2.48,0,3.86-1.36,0-2.68,0-4,0-.14,0-.38-.37-.39-.58-.05-1,0-2-.05-3.05a2.19,2.19,0,0,0-2.9-2.24,2,2,0,0,0-1.59,2,19.85,19.85,0,0,0-.05,2V26.18c0,.39,0,.8,0,1.19.1,1.53.85,2.29,2.25,2.29a2.1,2.1,0,0,0,2.26-2.29c.05-1.32,0-2.66,0-4C28.83,23.2,28.85,23,28.87,22.75Zm77.06-8.36c0-1.31,0-2.46,0-3.61A2.19,2.19,0,0,0,103,8.48a1.9,1.9,0,0,0-1.62,1.9c0,5.79,0,11.59,0,17.4a1.91,1.91,0,0,0,2,1.9A2,2,0,0,0,105.77,28a6.88,6.88,0,0,0,.14-1.35c0-1.27,0-2.54,0-3.88h4.4c-.1,2.53.37,5.11-.66,7.58a5.66,5.66,0,0,1-5.11,3.57,9.84,9.84,0,0,1-2.6-.07c-3.39-.61-5.24-2.95-5.28-6.79q-.07-8,0-16a9.15,9.15,0,0,1,.71-3.36c1.13-2.72,3.44-3.55,6.16-3.53,4.11,0,6.48,2.27,6.75,6.43a31.44,31.44,0,0,1,0,3.22.84.84,0,0,1-.48.58C108.59,14.41,107.33,14.39,105.93,14.39Zm-97,8.35V33.56H4.37c0-.3,0-.61,0-.91q0-13.62,0-27.24c0-.74.17-1,1-1,2.28.09,4.56,0,6.82.15A5.6,5.6,0,0,1,17.7,10a54.8,54.8,0,0,1,0,7c-.24,3.53-2.6,5.64-6.11,5.71ZM9,8.77v9.66l.57,0c.54,0,1.07,0,1.61,0a1.78,1.78,0,0,0,1.92-1.81c.07-2,.07-4.06,0-6.09a1.65,1.65,0,0,0-1.69-1.75A21.38,21.38,0,0,0,9,8.77ZM94.42,33.6H90.08V29.19h4.34Z" style="fill:#fff"/><path d="M117.23,19V11.64a8.73,8.73,0,0,1,.07-1.36,2.07,2.07,0,0,1,2.11-1.91,2,2,0,0,1,2.26,1.71,5.07,5.07,0,0,1,.13,1.09V27a4.75,4.75,0,0,1-.06.84,2.06,2.06,0,0,1-2.45,1.89,2,2,0,0,1-2-2.17c0-2.84,0-5.65,0-8.49ZM64.57,10.5c.68,4.57,1.35,9.15,2,13.78h-4.2c.69-4.65,1.37-9.25,2.06-13.83ZM9,8.77a21.23,21.23,0,0,1,2.4,0,1.67,1.67,0,0,1,1.68,1.75c.07,2,.07,4.05,0,6.09a1.76,1.76,0,0,1-1.92,1.81c-.54,0-1.06,0-1.6,0l-.58,0C9,15.22,9,12,9,8.77Z" style="fill:#e5382f"/></svg>