<svg id="Layer_1" data-name="Layer 1" xmlns="http://www.w3.org/2000/svg" viewBox="0 0 90 90"><defs><style>.cls-1{fill:#7b41bc;}.cls-2{fill:#ffad0d;}.cls-2,.cls-3,.cls-4,.cls-5,.cls-6,.cls-7,.cls-8{isolation:isolate;}.cls-3{fill:#0fffe8;}.cls-4{fill:#e38100;}.cls-5{fill:#ffc85d;}.cls-7{fill:#ff7304;}.cls-8{fill:#ff9952;}</style></defs><title>snapshot-starburst</title><path class="cls-1" d="M90,45c0,2.67-10.34,4.28-10.84,6.8s8.41,8,7.42,10.43S75.4,62.18,74,64.34,78.66,75,76.82,76.82,66.52,72.5,64.34,74s.31,11.62-2.12,12.62S54.4,78.64,51.8,79.16,47.67,90,45,90s-4.28-10.34-6.8-10.84-8,8.41-10.42,7.42,0-11.18-2.12-12.62S15,78.66,13.18,76.82,17.5,66.52,16,64.34s-11.62.31-12.62-2.12,7.94-7.83,7.42-10.43S0,47.66,0,45s10.34-4.28,10.84-6.8-8.41-8-7.42-10.43,11.18,0,12.62-2.12S11.34,15,13.18,13.18,23.48,17.5,25.66,16,25.34,4.43,27.77,3.42s7.83,7.94,10.42,7.42S42.33,0,45,0s4.28,10.34,6.8,10.84,8-8.42,10.42-7.42,0,11.18,2.12,12.62S75,11.34,76.82,13.18,72.5,23.48,74,25.66s11.62-.31,12.62,2.12S78.64,35.6,79.16,38.2,90,42.33,90,45Z"/><polygon class="cls-2" points="40.09 25.84 40.09 27.54 38.39 27.54 38.39 29.23 36.69 29.23 36.69 30.93 24.23 30.93 24.23 32.63 22.52 32.63 22.52 62.47 24.23 62.47 24.23 64.17 65.78 64.17 65.78 62.47 67.47 62.47 67.47 32.63 65.78 32.63 65.78 30.93 53.84 30.93 53.84 29.23 52.14 29.23 52.14 27.54 50.44 27.54 50.44 25.84 40.09 25.84"/><rect class="cls-2" x="25.92" y="26.34" width="6.59" height="2.89"/><rect x="28.09" y="36.83" width="3.25" height="1.7"/><rect x="27.97" y="46.07" width="7.8" height="1.7" transform="translate(78.8 15.05) rotate(90)"/><rect x="54.67" y="46.07" width="7.8" height="1.7" transform="translate(105.49 -11.65) rotate(90)"/><rect x="41.07" y="33.57" width="8.3" height="1.6"/><rect x="36.12" y="36.77" width="1.7" height="1.6"/><rect x="34.42" y="38.37" width="1.7" height="1.6"/><rect x="37.82" y="35.17" width="3.25" height="1.6"/><rect x="32.05" y="40.64" width="3.06" height="1.7" transform="translate(75.07 7.92) rotate(90)"/><rect x="52.62" y="36.77" width="1.7" height="1.6" transform="translate(106.95 75.13) rotate(-180)"/><rect x="54.32" y="38.37" width="1.7" height="1.6" transform="translate(110.34 78.33) rotate(-180)"/><rect x="49.37" y="35.17" width="3.25" height="1.6" transform="translate(102 71.94) rotate(-180)"/><rect x="55.34" y="40.64" width="3.06" height="1.7" transform="translate(98.36 -15.38) rotate(90)"/><rect x="41.07" y="58.67" width="8.3" height="1.6" transform="translate(90.45 118.94) rotate(180)"/><rect x="52.62" y="55.48" width="1.7" height="1.6" transform="translate(106.95 112.55) rotate(180)"/><rect x="54.32" y="53.88" width="1.7" height="1.6" transform="translate(110.34 109.35) rotate(180)"/><rect x="49.37" y="57.07" width="3.25" height="1.6" transform="translate(102 115.74) rotate(180)"/><rect x="55.34" y="51.5" width="3.06" height="1.7" transform="translate(4.52 109.22) rotate(-90)"/><rect x="36.12" y="55.48" width="1.7" height="1.6"/><rect x="34.42" y="53.88" width="1.7" height="1.6"/><rect x="37.82" y="57.07" width="3.25" height="1.6"/><rect x="32.05" y="51.5" width="3.06" height="1.7" transform="translate(-18.78 85.93) rotate(-90)"/><rect x="20.83" y="32.63" width="1.7" height="29.83"/><rect x="67.47" y="32.63" width="1.7" height="29.83"/><rect x="44.15" y="44.24" width="1.7" height="41.55" transform="translate(110.01 20.01) rotate(90)"/><rect x="22.53" y="62.47" width="1.7" height="1.7"/><rect x="22.53" y="30.93" width="1.7" height="1.7"/><rect x="36.69" y="27.53" width="1.7" height="1.7"/><rect x="53.84" y="29.23" width="11.93" height="1.7"/><rect x="38.39" y="25.84" width="1.7" height="1.7"/><rect x="52.14" y="27.53" width="1.7" height="1.7"/><rect x="50.44" y="25.84" width="1.7" height="1.7"/><polygon points="34.22 29.23 34.22 26.34 32.52 26.34 32.52 29.23 25.92 29.23 25.92 26.34 24.23 26.34 24.23 29.23 24.23 30.93 25.92 30.93 32.52 30.93 34.22 30.93 36.69 30.93 36.69 29.23 34.22 29.23"/><rect x="40.09" y="24.14" width="10.35" height="1.7"/><rect x="25.92" y="24.64" width="6.59" height="1.7"/><rect x="65.78" y="30.93" width="1.7" height="1.7"/><rect x="65.78" y="62.47" width="1.7" height="1.7"/><rect x="60.28" y="34.64" width="3.25" height="1.7"/><rect x="60.28" y="39.59" width="3.25" height="1.7"/><rect x="62.75" y="37.12" width="3.25" height="1.7" transform="translate(102.34 -26.41) rotate(90)"/><rect x="57.8" y="37.12" width="3.25" height="1.7" transform="translate(97.39 -21.46) rotate(90)"/><rect class="cls-3" x="60.28" y="36.34" width="3.25" height="3.25"/><rect class="cls-4" x="48.74" y="25.84" width="1.7" height="1.7"/><rect class="cls-4" x="30.82" y="26.34" width="1.7" height="2.89"/><rect class="cls-5" x="24.22" y="30.93" width="1.7" height="1.7"/><rect class="cls-4" x="50.44" y="27.53" width="1.7" height="1.7"/><rect class="cls-4" x="53.84" y="30.93" width="11.93" height="1.7"/><rect class="cls-4" x="51.71" y="46.7" width="29.83" height="1.7" transform="translate(114.17 -19.08) rotate(90)"/><rect class="cls-4" x="52.14" y="29.23" width="1.7" height="1.7"/><rect class="cls-4" x="64.08" y="62.47" width="1.7" height="1.7"/><g class="cls-6"><rect class="cls-5" x="8.46" y="46.7" width="29.83" height="1.7" transform="translate(70.92 24.17) rotate(90)"/><rect class="cls-5" x="24.22" y="62.47" width="1.7" height="1.7" transform="translate(50.15 126.63) rotate(-180)"/></g><polygon class="cls-7" points="41.07 35.17 49.37 35.17 49.37 36.77 52.62 36.77 52.62 38.37 54.32 38.37 54.32 39.96 56.02 39.96 56.02 43.02 57.72 43.02 57.72 50.82 56.02 50.82 56.02 53.88 54.32 53.88 54.32 55.48 52.62 55.48 52.62 57.07 49.37 57.07 49.37 58.67 41.07 58.67 41.07 57.07 37.82 57.07 37.82 55.48 36.12 55.48 36.12 53.88 34.42 53.88 34.42 50.82 32.73 50.82 32.73 43.02 34.42 43.02 34.42 39.96 36.12 39.96 36.12 38.37 37.82 38.37 37.82 36.77 41.07 36.77 41.07 35.17"/><rect x="42.79" y="39.84" width="4.96" height="1.7"/><rect x="47.74" y="41.53" width="1.7" height="1.7"/><rect x="41.07" y="41.53" width="1.7" height="1.7"/><rect x="39.37" y="43.23" width="1.7" height="1.7"/><rect class="cls-8" x="37.67" y="43.23" width="1.7" height="1.7"/><rect class="cls-8" x="37.68" y="49.17" width="1.7" height="1.7"/><rect class="cls-8" x="39.37" y="50.87" width="1.7" height="1.7"/><rect class="cls-8" x="41.07" y="52.57" width="1.7" height="1.7"/><rect x="49.44" y="43.23" width="1.7" height="1.7"/><rect x="42.77" y="52.57" width="4.96" height="1.7" transform="translate(90.5 106.84) rotate(180)"/><rect class="cls-8" x="42.77" y="54.27" width="4.96" height="1.7" transform="translate(90.5 110.24) rotate(180)"/><rect x="41.07" y="50.87" width="1.7" height="1.7" transform="translate(83.85 103.45) rotate(180)"/><rect x="47.74" y="50.87" width="1.7" height="1.7" transform="translate(97.19 103.45) rotate(180)"/><rect x="49.44" y="49.17" width="1.7" height="1.7" transform="translate(100.59 100.05) rotate(180)"/><rect x="39.37" y="49.17" width="1.7" height="1.7" transform="translate(80.45 100.05) rotate(180)"/><rect x="36.4" y="46.2" width="4.24" height="1.7" transform="translate(85.58 8.53) rotate(90)"/><rect class="cls-8" x="34.7" y="46.2" width="4.24" height="1.7" transform="translate(83.88 10.23) rotate(90)"/><rect x="49.87" y="46.2" width="4.24" height="1.7" transform="translate(99.05 -4.94) rotate(90)"/><polygon class="cls-3" points="42.77 41.53 47.74 41.53 47.74 43.23 49.44 43.23 49.44 44.93 51.14 44.93 51.14 49.17 49.44 49.17 49.44 50.87 47.74 50.87 47.74 52.57 42.77 52.57 42.77 50.87 41.07 50.87 41.07 49.17 39.37 49.17 39.37 44.93 41.07 44.93 41.07 43.23 42.77 43.23 42.77 41.53"/></svg>