<svg id="Layer_1" data-name="Layer 1" xmlns="http://www.w3.org/2000/svg" viewBox="0 0 12 12"><defs><style>.cls-1{fill:#754ea0;}</style></defs><title>snapshot-bullet</title><path class="cls-1" d="M12,6c0,.36-1.38.57-1.45.91s1.12,1.07,1,1.39-1.49,0-1.68.28.63,1.42.38,1.66-1.37-.58-1.66-.38,0,1.55-.28,1.68-1-1.06-1.39-1S6.36,12,6,12s-.57-1.38-.91-1.45S4,11.68,3.7,11.54s0-1.49-.28-1.68-1.42.63-1.66.38.58-1.37.38-1.66S.59,8.62.45,8.3s1.06-1,1-1.39S0,6.36,0,6s1.38-.57,1.45-.91S.32,4,.46,3.7s1.49,0,1.68-.28S1.51,2,1.76,1.76s1.37.57,1.66.38S3.38.59,3.7.46s1,1.06,1.39,1S5.64,0,6,0s.57,1.38.91,1.45S8,.32,8.3.46s0,1.49.28,1.68,1.42-.63,1.66-.38-.58,1.37-.38,1.66,1.55,0,1.68.28-1.06,1-1,1.39S12,5.64,12,6Z" transform="translate(0 0)"/></svg>