<svg xmlns="http://www.w3.org/2000/svg" xmlns:xlink="http://www.w3.org/1999/xlink" viewBox="0 0 125 20"><defs><clipPath id="a"><rect width="124.17" height="20" style="fill:none"/></clipPath></defs><g style="clip-path:url(#a)"><path d="M67.1,9.17a4.47,4.47,0,0,1,2.36-4,10.06,10.06,0,0,1,4.79-1.09c3.6,0,7,.75,7,5v6.63a8.72,8.72,0,0,0,.58,3.85h-5a4.11,4.11,0,0,1-.25-1.41,6.76,6.76,0,0,1-5,1.93c-2.85,0-5.2-1.41-5.2-4.6,0-5,5.37-4.52,8.81-5.29.83-.17,1.33-.5,1.33-1.42,0-1.17-1.33-1.6-2.44-1.6A2.27,2.27,0,0,0,71.6,9.12H67.08Z" style="fill:#333"/><path d="M97.29,19.65H92.58V17.88H92.5a4.81,4.81,0,0,1-4.1,2.18c-4.8,0-6.8-4.1-6.8-8.31,0-3.94,2.11-7.63,6.38-7.63a4.85,4.85,0,0,1,4.27,2.11h.08V-.06h5Z" style="fill:#333"/><path d="M98.06,9.17a4.47,4.47,0,0,1,2.36-4,10.06,10.06,0,0,1,4.79-1.09c3.6,0,7,.75,7,5v6.63a8.72,8.72,0,0,0,.58,3.85h-5a4.13,4.13,0,0,1-.26-1.41,6.86,6.86,0,0,1-5,1.93c-2.85,0-5.2-1.41-5.2-4.6,0-5,5.37-4.52,8.81-5.29.83-.17,1.33-.5,1.33-1.42,0-1.17-1.33-1.6-2.44-1.6a2.27,2.27,0,0,0-2.52,1.93H98v.05Z" style="fill:#333"/><path d="M13.92,13.27c.08,2.1,1.25,3.44,3.35,3.44A3.1,3.1,0,0,0,20.13,15h4.6c-.83,3.52-4.1,5-7.46,5C12.31,20.06,9,17.12,9,12A8,8,0,0,1,17.1,4c5.46,0,8.15,4.1,7.9,9.23H13.92Z" style="fill:#2f6e91"/><path d="M9.54,7.73h-3V14.6c0,1.17.67,1.42,1.77,1.42.42,0,.83-.08,1.25-.08v3.6c-.92,0-1.85.17-2.69.17-4.18,0-5.29-1.25-5.29-5.38V7.71H-.94V4.44H1.58V-.08h5V4.44h3V7.73Z" style="fill:#2f6e91"/><path d="M20,10.5A3,3,0,0,0,17.1,7.4a3.2,3.2,0,0,0-3.18,3.1Z" style="fill:#fff"/><path d="M35.9,10a2.35,2.35,0,0,0-2.44-2.19c-2.77,0-3.19,2.36-3.19,4.44s.83,3.94,2.94,3.94a2.66,2.66,0,0,0,2.85-2.61h4.79C40.44,17.69,37.33,20,33.31,20c-4.52,0-8-3.1-8-7.71,0-4.79,3-8.23,8-8.23,3.77,0,7.13,2,7.46,6H35.9Z" style="fill:#2f6e91"/><path d="M41-.06h5V6.56H46A5.34,5.34,0,0,1,50.65,4c5,0,5.45,3.69,5.45,5.88v9.73h-5v-7.3c0-2.1.25-4.18-2.53-4.18-1.85,0-2.68,1.6-2.68,3.27v8.23H41V-.06Z" style="fill:#2f6e91"/><path d="M56.52,4.46h4.79V7.15h.09a4.55,4.55,0,0,1,4.52-2.94,5.66,5.66,0,0,1,1.16.08V8.81a7.86,7.86,0,0,0-1.93-.25,3.46,3.46,0,0,0-3.69,3.61v7.45h-5S56.52,4.46,56.52,4.46Z" style="fill:#333"/><path d="M73.48,17c2.35,0,3.19-1.33,3-4.44a19.72,19.72,0,0,1-3,.84c-1.08.25-2,.75-2,1.94S72.38,17,73.48,17Z" style="fill:#fff"/><path d="M86.56,11.94c0,2.1.75,4.35,3,4.35,2.44,0,2.94-2.27,2.94-4.19,0-2.18-.75-4.18-2.94-4.18S86.56,10,86.56,11.94Z" style="fill:#fff"/><path d="M104.44,17c2.35,0,3.18-1.33,3-4.44a19.72,19.72,0,0,1-3,.84c-1.09.25-2,.75-2,1.94S103.33,17,104.44,17Z" style="fill:#fff"/><path d="M113,4.46h4.79V7.15h.08a4.56,4.56,0,0,1,4.52-2.94,12.1,12.1,0,0,1,1.69.08V8.81a11.81,11.81,0,0,0-2.35-.25A3.46,3.46,0,0,0,118,12.17v7.45h-5V4.44H113Z" style="fill:#333"/><path d="M119.1,14.69h5v5h-5Z" style="fill:#e6248a"/></g></svg>