<svg id="Layer_1" data-name="Layer 1" xmlns="http://www.w3.org/2000/svg" viewBox="0 0 8 8"><defs><style>.cls-1{fill:#7b41bc;}</style></defs><title>time-icon</title><path class="cls-1" d="M4,8a3.91,3.91,0,0,1-1.57-.32,4.14,4.14,0,0,1-1.28-.86A4,4,0,0,1,.32,5.54,3.91,3.91,0,0,1,0,4,3.83,3.83,0,0,1,.32,2.42a4,4,0,0,1,.87-1.26A4.07,4.07,0,0,1,2.47.31,4,4,0,0,1,4,0,3.77,3.77,0,0,1,5.72.39,4.21,4.21,0,0,1,7.09,1.46V.28h.67V2.59H5.43V1.92H6.6A3.86,3.86,0,0,0,5.45,1,3,3,0,0,0,4,.67a3.31,3.31,0,0,0-2.38,1,3.1,3.1,0,0,0-1,2.33,3.29,3.29,0,0,0,1,2.4A3.23,3.23,0,0,0,4,7.33a3.15,3.15,0,0,0,2.34-1A3.26,3.26,0,0,0,7.33,4H8A3.9,3.9,0,0,1,6.84,6.83,3.8,3.8,0,0,1,4,8ZM5.39,5.81,3.68,4.12V1.74h.67v2.1L5.87,5.33l-.48.48Z"/></svg>