<svg id="Layer_1" data-name="Layer 1" xmlns="http://www.w3.org/2000/svg" viewBox="0 0 100 23.98"><defs><style>.cls-1{fill:#0071ce;}.cls-2{fill:#ffc220;}</style></defs><title>walmart-logo</title><path class="cls-1" d="M58,25.77c0-2.37-1-4.46-4.44-4.46a8.09,8.09,0,0,0-3.91.94l.56,1.9a5.77,5.77,0,0,1,2.86-.8c1.74,0,2,1,2,1.61v.15c-3.79,0-6.18,1.3-6.18,4a3.15,3.15,0,0,0,3.34,3.16,3.83,3.83,0,0,0,3-1.35h.06s.43,1.81,2.82,1.12A15.72,15.72,0,0,1,58,29.48Zm-2.83,2.5a1.82,1.82,0,0,1-.07.56,2,2,0,0,1-1.91,1.34,1.29,1.29,0,0,1-1.41-1.38c0-1.43,1.58-1.83,3.39-1.82" transform="translate(0 -13.01)"/><path class="cls-1" d="M0,18.09S2.47,28.21,2.87,29.85c.46,1.92,1.29,2.63,3.69,2.15L8.1,25.73c.39-1.56.66-2.67.91-4.26h0a41.77,41.77,0,0,0,.75,4.26s.63,2.85,1,4.35S12,32.52,14.33,32L18,18.09H15l-1.26,6c-.33,1.74-.64,3.12-.88,4.72h0c-.21-1.58-.48-2.9-.83-4.61l-1.31-6.13H7.61l-1.4,6c-.4,1.82-.77,3.29-1,4.83h0c-.24-1.45-.57-3.3-.92-5.06,0,0-.83-4.28-1.12-5.75" transform="translate(0 -13.01)"/><path class="cls-1" d="M26.29,25.77c0-2.37-1-4.46-4.44-4.46a8.09,8.09,0,0,0-3.91.94l.56,1.9a5.76,5.76,0,0,1,2.86-.8c1.74,0,2,1,2,1.61v.15c-3.79,0-6.19,1.3-6.19,4a3.15,3.15,0,0,0,3.34,3.16,3.81,3.81,0,0,0,3-1.35h.07s.43,1.81,2.82,1.12a15.61,15.61,0,0,1-.16-2.52Zm-2.83,2.5a1.9,1.9,0,0,1-.07.56,2,2,0,0,1-1.91,1.34,1.29,1.29,0,0,1-1.41-1.38c0-1.43,1.58-1.83,3.39-1.82" transform="translate(0 -13.01)"/><polygon class="cls-1" points="27.83 5.08 27.83 18.99 30.66 18.99 30.66 16.04 30.66 5.08 27.83 5.08"/><path class="cls-1" d="M66.68,18.09V28.35a4.29,4.29,0,0,0,.84,3,3.15,3.15,0,0,0,2.3.88,6.85,6.85,0,0,0,2.05-.3l0-2.21a4.53,4.53,0,0,1-1.08.13c-1,0-1.28-.61-1.28-1.88V24h2.46V21.38H69.48V18.09" transform="translate(0 -13.01)"/><path class="cls-1" d="M59.37,21.55V32h2.92V26.65a4,4,0,0,1,.06-.77A2.2,2.2,0,0,1,64.67,24a4.89,4.89,0,0,1,.84.08V21.38A3,3,0,0,0,62,23.53h-.07v-2" transform="translate(0 -13.01)"/><path class="cls-1" d="M32.3,21.55V32h2.85V25.87a2.38,2.38,0,0,1,.13-.85A1.91,1.91,0,0,1,37,23.68c1.15,0,1.69,1,1.69,2.37v6h2.84V25.8a2.92,2.92,0,0,1,.12-.84,1.78,1.78,0,0,1,1.71-1.27c1.16,0,1.72.95,1.72,2.59V32h2.84V25.84c0-3.24-1.65-4.52-3.52-4.52a3.78,3.78,0,0,0-2.07.57A4.48,4.48,0,0,0,41,23.18h0a3,3,0,0,0-2.89-1.86,3.29,3.29,0,0,0-3,1.65h0V21.55" transform="translate(0 -13.01)"/><path class="cls-2" d="M87.25,21.08a1,1,0,0,0,1.09-.67l.55-6.28c0-.62-.73-1.13-1.64-1.13s-1.64.51-1.64,1.13l.56,6.28a1,1,0,0,0,1.09.67" transform="translate(0 -13.01)"/><path class="cls-2" d="M83.85,23a1,1,0,0,0,0-1.28l-5.17-3.62c-.54-.31-1.34.06-1.8.85A1.46,1.46,0,0,0,77,21l5.73,2.65a1,1,0,0,0,1.13-.6" transform="translate(0 -13.01)"/><path class="cls-2" d="M90.64,23a1.05,1.05,0,0,0,1.13.61L97.5,21c.53-.31.61-1.19.16-2s-1.27-1.16-1.81-.86l-5.17,3.61a1.06,1.06,0,0,0,0,1.28" transform="translate(0 -13.01)"/><path class="cls-2" d="M87.25,28.92a1,1,0,0,1,1.09.67l.55,6.28c0,.62-.73,1.13-1.64,1.13s-1.64-.5-1.64-1.13l.56-6.28a1,1,0,0,1,1.09-.67" transform="translate(0 -13.01)"/><path class="cls-2" d="M90.64,27c.29-.49.77-.75,1.13-.61L97.5,29c.53.31.61,1.19.16,2s-1.27,1.16-1.81.85l-5.17-3.62a1,1,0,0,1,0-1.27" transform="translate(0 -13.01)"/><path class="cls-2" d="M83.85,27a1,1,0,0,1,0,1.28l-5.17,3.61c-.54.31-1.34-.06-1.8-.85A1.46,1.46,0,0,1,77,29l5.73-2.66a1,1,0,0,1,1.13.6" transform="translate(0 -13.01)"/><path class="cls-2" d="M99.18,31.3h.07c.1,0,.14,0,.15.11a.53.53,0,0,0,.05.17h.18a.33.33,0,0,1,0-.17.2.2,0,0,0-.14-.16v0a.17.17,0,0,0,.15-.16.21.21,0,0,0-.06-.15.5.5,0,0,0-.25-.05,1.16,1.16,0,0,0-.27,0v.69h.16Zm0-.32h.08c.1,0,.15,0,.15.11s-.07.1-.16.1h-.07Zm.1-.47a.7.7,0,1,0,.72.7.7.7,0,0,0-.72-.7m0,.14a.56.56,0,0,1,0,1.12.56.56,0,0,1,0-1.12" transform="translate(0 -13.01)"/></svg>