<svg id="Layer_1" data-name="Layer 1" xmlns="http://www.w3.org/2000/svg" viewBox="0 0 15 15"><defs><style>.cls-1{fill:#fcbb30;}</style></defs><title>walmart-icon</title><g id="layer1"><path id="path2974" class="cls-1" d="M7.5,5.21a.6.6,0,0,0,.63-.39l.32-3.66C8.46.8,8,.5,7.5.5s-1,.3-1,.66l.32,3.66a.6.6,0,0,0,.63.39h0"/><path id="path2976" class="cls-1" d="M5.52,6.36a.6.6,0,0,0,0-.74l-3-2.11c-.31-.18-.78,0-1,.5s-.22,1,.09,1.16L4.86,6.71a.6.6,0,0,0,.66-.35h0"/><path id="path2978" class="cls-1" d="M9.48,6.36a.6.6,0,0,0,.66.35l3.33-1.55c.31-.18.36-.7.09-1.16s-.74-.68-1-.5l-3,2.11a.6.6,0,0,0,0,.74h0"/><path id="path2980" class="cls-1" d="M7.5,9.79a.6.6,0,0,1,.63.39l.32,3.66c0,.36-.42.66-1,.66s-1-.3-1-.66l.32-3.66a.6.6,0,0,1,.63-.39h0"/><path id="path2982" class="cls-1" d="M9.48,8.64a.6.6,0,0,1,.66-.35l3.33,1.55c.31.18.36.7.09,1.16s-.74.68-1,.5l-3-2.11a.6.6,0,0,1,0-.75h0"/><path id="path2984" class="cls-1" d="M5.52,8.64a.6.6,0,0,1,0,.75l-3,2.11c-.31.18-.78,0-1-.5s-.22-1,.09-1.16L4.86,8.29a.6.6,0,0,1,.66.35h0"/></g></svg>